Coordinates
version=1
nRows=7
nColumns=42
inDegrees=yes

Units are S.I. units (second, meters, Newtons, ...)
If the header above contains a line with 'inDegrees', this indicates whether rotational values are in degrees (yes) or radians (no).

endheader
time	pelvis_tilt	pelvis_list	pelvis_rotation	pelvis_tx	pelvis_ty	pelvis_tz	hip_flexion_r	hip_adduction_r	hip_rotation_r	knee_angle_r	knee_adduction_r	knee_angle_r_beta	ankle_angle_r	subtalar_angle_r	mtp_angle_r	hip_flexion_l	hip_adduction_l	hip_rotation_l	knee_angle_l	knee_adduction_l	knee_angle_l_beta	ankle_angle_l	subtalar_angle_l	mtp_angle_l	lumbar_extension	lumbar_bending	lumbar_rotation	arm_flex_r	arm_add_r	arm_rot_r	elbow_flex_r	pro_sup_r	wrist_flex_r	wrist_dev_r	arm_flex_l	arm_add_l	arm_rot_l	elbow_flex_l	pro_sup_l	wrist_flex_l	wrist_dev_l
      0.40000000	      8.88546408	      3.40122653	     -2.30595126	     -1.55515855	      0.90156618	      0.17029681	      1.59440070	     -6.86501225	      0.59985338	     65.64030441	      6.59789938	      1.14563943	     -1.24832586	    -12.15003482	     -9.61344200	      4.84269999	      9.60824277	    -17.73105059	     26.03995064	     -4.41127778	      0.45448288	     19.16398861	     18.59066289	     -9.61344200	    -18.66669957	     -2.72741921	     -2.42943822	      3.16894103	     -9.78935999	     -9.48844196	     29.68295350	     90.00000001	      0.00000000	      0.00000000	     -6.85781589	     -7.02057396	    -27.38446786	     39.15855360	     90.00000001	      0.00000000	      0.00000000
      0.41000000	      8.99675556	      3.22112990	     -2.41889782	     -1.54794925	      0.90238814	      0.17037246	      3.43606765	     -6.42674780	      0.64850802	     66.80040016	      5.80180775	      1.16588692	      0.39461415	    -13.23031649	     -9.58122382	      3.82648031	      9.41213435	    -17.55242120	     25.50458786	     -4.13476337	      0.44513903	     19.50648756	     18.69497300	     -9.58122382	    -18.94798819	     -2.53794406	     -2.56691430	      3.04195838	     -9.92948331	     -9.60996418	     29.41859520	     90.00000001	      0.00000000	      0.00000000	     -6.50377084	     -7.16416936	    -27.11913100	     39.37806450	     90.00000001	      0.00000000	      0.00000000
      0.42000000	      9.06851287	      3.11384246	     -2.46277387	     -1.54080376	      0.90310861	      0.17024467	      5.26825680	     -6.12964164	      0.76865666	     67.68242048	      5.26226012	      1.18128108	      1.81845375	    -14.43113328	     -9.54730316	      2.86882958	      9.34882390	    -17.31981357	     24.95332219	     -3.93180668	      0.43551763	     19.81973136	     18.84992955	     -9.54730316	    -19.17909372	     -2.39789938	     -2.80014395	      2.93626330	    -10.03656873	     -9.91036507	     29.15498690	     90.00000001	      0.00000000	      0.00000000	     -6.17120403	     -7.34810004	    -26.67415654	     39.57530668	     90.00000001	      0.00000000	      0.00000000
      0.43000000	      9.13135191	      2.93909422	     -2.46185072	     -1.53376991	      0.90384702	      0.17014320	      7.02055810	     -5.70077991	      0.96134557	     68.18419951	      4.82695167	      1.19003878	      2.95558335	    -15.27259644	     -9.51913767	      1.95055461	      9.20571120	    -17.03663144	     24.44531956	     -3.75094989	      0.42665131	     20.07169428	     18.93575867	     -9.51913767	    -19.42801323	     -2.17855153	     -3.06004446	      2.82721933	    -10.14802936	    -10.21182814	     28.98703638	     90.00000001	      0.00000000	      0.00000000	     -5.83261997	     -7.54281624	    -26.25317470	     39.74662486	     90.00000001	      0.00000000	      0.00000000
      0.44000000	      9.16967967	      2.78101481	     -2.41921743	     -1.52671748	      0.90453259	      0.16999631	      8.69760513	     -5.29573943	      1.18908988	     68.34461019	      4.52729606	      1.19283847	      3.98575700	    -16.08953573	     -9.49038480	      1.04466535	      9.09173822	    -16.63634210	     23.90642091	     -3.54745849	      0.41724576	     20.35532344	     19.01012114	     -9.49038480	    -19.62720105	     -1.95800955	     -3.33014211	      2.68847178	    -10.22090085	    -10.60205027	     28.82996972	     90.00000001	      0.00000000	      0.00000000	     -5.49307014	     -7.75809480	    -25.72653912	     39.87885441	     90.00000001	      0.00000000	      0.00000000
      0.45000000	      9.20205399	      2.58920484	     -2.29346520	     -1.51979546	      0.90521619	      0.16975512	     10.25483507	     -4.90184540	      1.41237136	     68.13322930	      4.40649733	      1.18914918	      4.75273519	    -16.61915960	     -9.46054905	      0.19627030	      8.94983914	    -16.17124920	     23.42114903	     -3.39675411	      0.40877617	     20.60715709	     19.01507274	     -9.46054905	    -19.84504402	     -1.68512325	     -3.65458331	      2.55979654	    -10.28530832	    -11.05709440	     28.74530225	     90.00000001	      0.00000000	      0.00000000	     -5.12716915	     -7.99480200	    -25.13530962	     39.99267653	     90.00000001	      0.00000000	      0.00000000
      0.46000000	      9.19981371	      2.38325518	     -2.09274870	     -1.51279413	      0.90581975	      0.16937349	     11.70343142	     -4.50582181	      1.58785220	     67.55078263	      4.33599169	      1.17898357	      5.33195610	    -16.85878394	     -9.43248589	     -0.55197653	      8.80513462	    -15.70721151	     23.03790122	     -3.31303526	      0.40208723	     20.81733571	     18.95656297	     -9.43248589	    -19.99921944	     -1.36073155	     -4.03555737	      2.35961007	    -10.36373436	    -11.47618166	     28.70876708	     90.00000001	      0.00000000	      0.00000000	     -4.78852715	     -8.20774800	    -24.59616228	     40.08660860	     90.00000001	      0.00000000	      0.00000000
